# Blender v2.91.2 OBJ File: 'amggtr.blend'
# www.blender.org
mtllib gtr.mtl
o Cube
v 0.002427 -0.848573 -2.186806
v 0.002427 -1.260696 -2.186806
v -0.086652 -0.848573 -2.186806
v -0.086652 -1.260696 -2.186806
v -0.950778 -0.980888 -1.699743
v 0.642900 -0.700906 -1.699743
v -0.681364 -0.700906 -1.699743
v 0.842488 -0.980888 -1.699743
v -1.010938 -0.795818 -1.399108
v 0.671522 -0.640746 -1.399108
v -0.720760 -0.640746 -1.399108
v 0.914681 -0.795818 -1.399108
v -1.000000 -1.010027 -1.104424
v 0.702679 -0.607931 -1.104424
v -0.753988 -0.607931 -1.104424
v 0.901555 -1.010027 -1.104424
v -0.741262 -0.624338 -1.251765
v 0.908118 -0.832279 -1.251765
v -1.000000 -0.832279 -1.251765
v 0.690039 -0.624338 -1.251765
v -0.710198 -0.662622 -1.532723
v 0.914681 -0.818606 -1.532723
v -1.005469 -0.818606 -1.532723
v 0.638042 -0.662622 -1.532723
v -0.650830 -0.728252 -1.811816
v 0.750607 -1.288042 -1.850100
v -0.852333 -1.288042 -1.850100
v 0.673030 -0.768393 -1.812306
v -0.972654 -1.306273 -0.542341
v 0.783139 -0.607931 -0.542341
v -0.801512 -0.607931 -0.542341
v 0.888429 -1.306273 -0.542341
v -1.000000 -1.306273 -0.286424
v 0.698837 -0.460264 -0.286424
v -0.712393 -0.460264 -0.286424
v 0.888429 -1.306273 -0.286424
v -1.000000 -1.306273 -0.068083
v 0.663543 -0.329004 -0.068083
v -0.652052 -0.329004 -0.068083
v 0.894992 -1.306273 -0.068083
v -0.989062 -1.306273 0.368598
v 0.705454 -0.263374 0.368598
v -0.693802 -0.263374 0.368598
v 0.894992 -1.306273 0.368598
v -0.983593 -1.306273 0.597856
v 0.754629 -0.263374 0.597856
v -0.743652 -0.263374 0.597856
v 0.914681 -1.306273 0.597856
v -1.021877 -1.306273 1.307463
v 0.914379 -0.471202 1.307463
v -0.967853 -0.471202 1.307463
v 0.958981 -1.306273 1.307463
v -0.864903 -0.334473 0.947116
v 0.940933 -0.795818 0.947116
v -1.000000 -0.795818 0.947116
v 0.878144 -0.334473 0.947116
v -0.796686 -0.296189 0.772486
v 0.914681 -0.845952 0.772486
v -0.978123 -0.845952 0.772486
v 0.809708 -0.296189 0.772486
v -1.027346 -0.845979 1.121830
v 0.957455 -0.400103 1.121830
v -0.936206 -0.400103 1.121830
v 0.977212 -0.845979 1.121830
v -0.983593 -1.295334 1.471219
v 0.840358 -0.542301 1.471219
v -0.904058 -0.542301 1.471219
v 0.940751 -1.295334 1.471219
v -0.813501 -1.246112 1.733603
v 0.691829 -0.613400 1.733603
v -0.746355 -0.613400 1.733603
v 0.801157 -1.246112 1.733603
v -0.777121 -0.542603 -0.420065
v 0.888429 -1.306273 -0.420065
v -1.000000 -1.306273 -0.420065
v 0.777174 -0.542603 -0.420065
v -0.316000 -1.185951 1.913884
v 0.326509 -0.696190 1.913884
v -0.316000 -0.696190 1.913884
v 0.326509 -1.185951 1.913884
v -0.299593 -0.751109 1.946240
v 0.310102 -0.752680 1.946240
v -0.299593 -0.752680 1.946240
v 0.310102 -0.751109 1.946240
v -0.765817 -0.607931 -1.058351
v 0.894992 -1.306273 -1.058351
v -0.983593 -1.306273 -1.058351
v 0.721838 -0.607931 -1.058351
v -0.605425 -0.786006 -1.991811
v 0.547154 -1.274916 -2.011719
v -0.600752 -1.274916 -2.011719
v 0.547154 -0.786006 -1.991811
v -0.496838 -0.819696 -2.096808
v 0.415895 -1.267259 -2.105996
v -0.496838 -1.267259 -2.105996
v 0.415895 -0.819696 -2.096808
v -1.024614 -0.925941 1.214552
v 0.958390 -0.435616 1.214552
v -0.968362 -0.435616 1.214552
v 0.968106 -0.925941 1.214552
v -0.898275 -0.367288 1.034473
v 0.959073 -0.807267 1.034473
v -1.013673 -0.807267 1.034473
v 0.924209 -0.367288 1.034473
v -0.989062 -0.811797 0.859801
v 0.840315 -0.315331 0.859801
v -0.830527 -0.315331 0.859801
v 0.927807 -0.811797 0.859801
v -0.772140 -0.280447 0.688711
v 0.914681 -0.912282 0.688711
v -0.980747 -0.912282 0.688711
v 0.796780 -0.280447 0.688711
v -1.023283 -1.001806 1.259727
v 0.944394 -0.452919 1.259727
v -0.974289 -0.452919 1.259727
v 0.963669 -1.001806 1.259727
v -0.761243 -0.271910 0.643283
v 0.914681 -1.016578 0.643283
v -0.982170 -1.016578 0.643283
v 0.767585 -0.271910 0.643283
v -1.000000 -0.893888 -1.178095
v 0.695906 -0.616134 -1.178095
v -0.747465 -0.616134 -1.178095
v 0.904837 -0.893888 -1.178095
v -0.729651 -0.632542 -1.325437
v 0.911400 -0.803143 -1.325437
v -1.005469 -0.803143 -1.325437
v 0.680383 -0.632542 -1.325437
v -1.008204 -0.796307 -1.465915
v 0.642490 -0.651684 -1.465915
v -0.724132 -0.651684 -1.465915
v 0.914681 -0.796307 -1.465915
v -0.699146 -0.681764 -1.616233
v 0.878585 -0.867030 -1.616233
v -0.978123 -0.867030 -1.616233
v 0.641988 -0.681764 -1.616233
v -0.921044 -1.294404 -1.745156
v 0.644822 -0.709166 -1.733593
v -0.673832 -0.709166 -1.733593
v 0.814737 -1.294404 -1.745156
vt 0.375000 0.247372
vt 0.625000 0.250000
vt 0.375000 0.250000
vt 0.375000 0.500000
vt 0.625000 0.517606
vt 0.375000 0.520486
vt 0.375000 0.517606
vt 0.125000 0.517606
vt 0.125000 0.520486
vt 0.375000 0.224217
vt 0.625000 0.229514
vt 0.375000 0.229514
vt 0.875000 0.517606
vt 0.625000 0.520486
vt 0.625000 0.205773
vt 0.375000 0.210446
vt 0.375000 0.205773
vt 0.375000 0.535317
vt 0.625000 0.539554
vt 0.375000 0.539554
vt 0.125000 0.535317
vt 0.125000 0.539554
vt 0.625000 0.535317
vt 0.875000 0.539554
vt 0.625000 0.188832
vt 0.375000 0.191755
vt 0.375000 0.188832
vt 0.375000 0.553573
vt 0.625000 0.558245
vt 0.375000 0.558245
vt 0.125000 0.553573
vt 0.125000 0.558245
vt 0.625000 0.553573
vt 0.875000 0.558245
vt 0.875000 0.544227
vt 0.625000 0.548900
vt 0.625000 0.544227
vt 0.375000 0.544227
vt 0.125000 0.548900
vt 0.125000 0.544227
vt 0.375000 0.548900
vt 0.625000 0.196427
vt 0.375000 0.201100
vt 0.375000 0.196427
vt 0.875000 0.525783
vt 0.625000 0.531080
vt 0.625000 0.525783
vt 0.375000 0.525783
vt 0.125000 0.531080
vt 0.125000 0.525783
vt 0.375000 0.531080
vt 0.375000 0.214683
vt 0.625000 0.218920
vt 0.375000 0.218920
vt 0.625000 0.505694
vt 0.875000 0.510949
vt 0.625000 0.510949
vt 0.125000 0.505694
vt 0.375000 0.510949
vt 0.125000 0.510949
vt 0.375000 0.505694
vt 0.625000 0.232394
vt 0.375000 0.239051
vt 0.375000 0.232394
vt 0.375000 0.148348
vt 0.625000 0.156104
vt 0.375000 0.156103
vt 0.375000 0.561167
vt 0.625000 0.593897
vt 0.375000 0.593896
vt 0.125000 0.593897
vt 0.125000 0.561168
vt 0.625000 0.561168
vt 0.875000 0.593897
vt 0.375000 0.126023
vt 0.625000 0.139872
vt 0.375000 0.139871
vt 0.625000 0.601652
vt 0.375000 0.610128
vt 0.375000 0.601652
vt 0.125000 0.610129
vt 0.125000 0.601652
vt 0.875000 0.601652
vt 0.625000 0.610129
vt 0.375000 0.098326
vt 0.625000 0.126023
vt 0.375000 0.623977
vt 0.125000 0.623977
vt 0.875000 0.623977
vt 0.625000 0.623977
vt 0.625000 0.083784
vt 0.375000 0.083784
vt 0.375000 0.651675
vt 0.125000 0.651675
vt 0.875000 0.651675
vt 0.625000 0.651675
vt 0.375000 0.080903
vt 0.625000 0.666216
vt 0.375000 0.666216
vt 0.125000 0.666216
vt 0.625000 0.028390
vt 0.375000 0.038776
vt 0.375000 0.028390
vt 0.375005 0.708196
vt 0.625000 0.711224
vt 0.375000 0.711224
vt 0.125000 0.708196
vt 0.125000 0.711224
vt 0.875000 0.708196
vt 0.624999 0.708196
vt 0.625000 0.682830
vt 0.875000 0.688368
vt 0.625000 0.688368
vt 0.375000 0.682830
vt 0.125000 0.688368
vt 0.125000 0.682830
vt 0.375000 0.688368
vt 0.625000 0.056091
vt 0.375000 0.061632
vt 0.375000 0.056091
vt 0.625000 0.671978
vt 0.375000 0.677292
vt 0.375000 0.671978
vt 0.125000 0.677292
vt 0.125000 0.671978
vt 0.875000 0.671978
vt 0.625000 0.677292
vt 0.375000 0.067170
vt 0.625000 0.072708
vt 0.375000 0.072708
vt 0.624997 0.044669
vt 0.375000 0.050550
vt 0.375019 0.044669
vt 0.875000 0.693909
vt 0.625000 0.699450
vt 0.625000 0.693909
vt 0.375000 0.693909
vt 0.125000 0.699450
vt 0.125000 0.693909
vt 0.375000 0.699450
vt 0.375000 0.015580
vt 0.625000 0.721610
vt 0.375000 0.721610
vt 0.125000 0.721610
vt 0.875000 0.711224
vt 0.375000 0.004145
vt 0.625000 0.015580
vt 0.375000 0.734420
vt 0.125000 0.734420
vt 0.875000 0.734420
vt 0.625000 0.734420
vt 0.625000 0.148348
vt 0.375000 0.002093
vt 0.625000 0.004145
vt 0.375000 0.745855
vt 0.125000 0.745855
vt 0.875000 0.745855
vt 0.625000 0.745855
vt 0.625000 0.747907
vt 0.375000 0.747907
vt 0.125000 0.747907
vt 0.875000 0.561168
vt 0.625000 0.502628
vt 0.375000 0.502628
vt 0.125000 0.502628
vt 0.875000 0.505694
vt 0.625000 0.244306
vt 0.375000 0.244306
vt 0.625000 0.500000
vt 0.875000 0.502628
vt 0.125000 0.500000
vt 0.625000 0.247372
vt 0.624998 0.041804
vt 0.375010 0.041804
vt 0.875000 0.699450
vt 0.624998 0.705331
vt 0.375009 0.705331
vt 0.125000 0.705331
vt 0.625000 0.050550
vt 0.625000 0.061632
vt 0.875000 0.677292
vt 0.625000 0.669097
vt 0.375000 0.669097
vt 0.125000 0.669097
vt 0.625000 0.078022
vt 0.375000 0.078022
vt 0.625000 0.038776
vt 0.875000 0.705331
vt 0.875000 0.666216
vt 0.625000 0.080903
vt 0.625000 0.191755
vt 0.875000 0.548900
vt 0.625000 0.201100
vt 0.625000 0.214683
vt 0.875000 0.531080
vt 0.875000 0.520486
vt 0.625000 0.224217
vt 0.625000 0.210446
vt 0.875000 0.535317
vt 0.875000 0.553573
vt 0.625000 0.239051
vt 0.875000 0.610129
vt 0.625000 0.098326
vt 0.875000 0.682830
vt 0.625000 0.067170
vt 0.875000 0.721610
vt 0.625000 0.002093
vt 0.875000 0.747907
vt 0.875000 0.500000
vt 0.875000 0.669097
vn -0.1933 0.0000 -0.9811
vn 0.0000 0.0000 -1.0000
vn 0.3117 0.1091 -0.9439
vn 0.0000 -0.1434 0.9897
vn -0.4656 0.4480 -0.7633
vn 0.0000 0.9715 -0.2370
vn -0.5221 0.8440 0.1227
vn 0.5377 0.8431 -0.0062
vn 0.0000 -1.0000 0.0073
vn 0.0000 0.9869 -0.1616
vn -0.3871 0.1207 0.9141
vn 0.7209 0.3566 0.5942
vn 0.0000 -0.5357 -0.8444
vn 0.0000 0.9939 -0.1107
vn 0.0000 -0.9299 -0.3678
vn 0.6578 0.6899 0.3022
vn -0.6449 0.5863 0.4903
vn 0.0000 0.9747 -0.2234
vn 0.0000 -0.8651 0.5016
vn 0.4996 0.6380 -0.5859
vn -0.4456 0.8435 -0.2998
vn 0.0300 0.9925 -0.1185
vn 0.0000 -0.9967 -0.0809
vn 0.6230 0.0318 -0.7816
vn -0.7946 0.3455 -0.4993
vn -0.9491 0.2326 -0.2123
vn 0.9887 0.1491 0.0126
vn 0.0000 -1.0000 -0.0000
vn 0.0000 1.0000 0.0000
vn -0.9468 0.3219 0.0000
vn 0.9896 0.1442 0.0000
vn -0.0000 0.8514 -0.5246
vn -0.9418 0.3353 0.0236
vn 0.9754 0.2186 -0.0293
vn -0.0000 0.8571 -0.5152
vn -0.9743 0.2242 0.0232
vn 0.9731 0.2305 0.0000
vn -0.0000 0.9889 -0.1486
vn -0.5666 0.1304 -0.8136
vn 0.9849 0.1511 -0.0846
vn -0.9701 0.1025 0.2200
vn 0.9146 0.0489 0.4014
vn 0.0000 -0.1549 -0.9879
vn 0.0000 0.9338 0.3577
vn 0.0000 0.9768 0.2141
vn 0.0000 -0.9837 0.1800
vn 0.9763 0.1329 -0.1711
vn -0.9606 0.2519 -0.1173
vn 0.9728 0.1815 -0.1437
vn 0.0000 -0.7840 0.6207
vn 0.0000 0.9828 0.1847
vn -0.9231 0.3046 -0.2348
vn -0.9855 0.1131 0.1265
vn 0.0000 0.9361 0.3517
vn 0.0000 -0.9142 -0.4052
vn 0.9819 0.0435 -0.1846
vn -0.8433 0.0891 0.5300
vn 0.9862 0.1315 0.1010
vn 0.0000 -0.9978 0.0666
vn 0.0000 0.9173 0.3983
vn -0.3444 0.0365 0.9381
vn 0.8857 0.1181 0.4490
vn 0.0000 -0.9829 0.1844
vn 0.0000 0.9652 0.2615
vn 0.0000 0.8820 -0.4712
vn 0.9888 0.1491 0.0000
vn -0.9600 0.2802 0.0000
vn -0.8919 0.0000 0.4523
vn 0.3613 0.0624 0.9304
vn 0.0000 -0.9486 0.3165
vn 0.0000 0.9088 0.4173
vn -0.8922 0.0000 -0.4516
vn 0.0000 -0.0742 0.9972
vn 0.0000 0.4970 0.8677
vn 0.0000 -0.1537 -0.9881
vn 0.4952 0.1228 0.8601
vn -0.9711 0.2380 0.0206
vn 0.5839 0.0167 -0.8116
vn 0.0000 0.9522 -0.3055
vn -0.5413 0.0290 -0.8403
vn 0.1918 0.0000 -0.9814
vn -0.6725 0.0152 -0.7400
vn -0.9805 0.0875 0.1759
vn 0.0000 -0.7573 -0.6531
vn 0.9932 0.0197 0.1145
vn 0.9781 0.0775 -0.1930
vn 0.0000 -0.9915 -0.1299
vn -0.9777 0.1998 -0.0645
vn -0.9459 0.2770 -0.1692
vn 0.9591 0.1831 -0.2158
vn 0.0000 -0.9313 0.3643
vn 0.0000 -0.3993 0.9168
vn 0.8963 0.1771 -0.4065
vn -0.9277 0.3063 -0.2135
vn -0.9130 0.0591 0.4036
vn 0.0000 -0.5116 -0.8592
vn 0.9873 0.0347 0.1552
vn 0.7104 0.1090 -0.6953
vn 0.0000 -0.1549 0.9879
vn -0.8137 0.2414 -0.5288
vn -0.6587 0.4030 0.6353
vn 0.0000 -0.7671 -0.6415
vn 0.7037 0.5293 0.4740
vn 0.5907 0.7999 0.1058
vn 0.0000 -0.9951 -0.0989
vn -0.5904 0.7346 0.3344
vn -0.4536 0.8909 -0.0251
vn 0.0000 -0.9486 0.3166
vn 0.4716 0.8364 -0.2792
vn 0.5361 0.3821 -0.7527
vn 0.0000 -0.5914 0.8064
vn -0.4608 0.6939 -0.5533
vn -0.2334 0.1177 -0.9652
vn 0.0241 0.8030 -0.5955
vn 0.0000 -0.9982 -0.0605
vn 0.8462 0.1632 -0.5072
vn -0.2129 0.0201 -0.9769
vn 0.8106 0.5778 -0.0950
vn -0.5286 0.7960 -0.2950
vn -0.4658 0.8715 -0.1533
vn 0.4431 0.8339 -0.3291
vn -0.8333 0.5098 -0.2140
vn 0.7914 0.5953 -0.1390
vn 0.5859 0.7934 -0.1651
vn -0.6204 0.7720 -0.1382
vn 0.4837 0.8578 -0.1738
vn -0.4411 0.8664 -0.2339
vn 0.8005 0.1615 -0.5772
vn -0.8770 0.3390 -0.3406
vn -0.9591 0.2799 0.0418
vn 0.9642 0.2391 -0.1145
vn -0.9405 0.3348 0.0586
vn 0.8941 0.2004 0.4006
vn -0.9538 0.2700 -0.1318
vn 0.9729 0.2304 0.0188
vn -0.9418 0.2666 -0.2048
vn 0.9767 0.1775 -0.1204
vn -0.9137 0.2711 -0.3029
vn 0.9627 0.1750 -0.2065
vn -0.9211 0.0596 0.3847
vn 0.8411 0.0295 0.5401
vn 0.9179 0.1618 -0.3622
vn -0.9286 0.2719 -0.2526
vn 0.9757 0.1863 -0.1156
vn -0.9118 0.2912 -0.2896
vn -0.9475 0.1937 -0.2544
vn 0.9410 0.0746 -0.3301
vn -0.8428 0.0894 0.5308
vn 0.9022 0.0482 0.4287
vn 0.0000 -0.9978 0.0667
vn -0.3864 0.0000 0.9223
vn 0.8435 0.1457 0.5170
vn 0.9891 0.1441 -0.0287
vn -0.9163 0.3115 0.2519
vn 0.8919 0.0000 -0.4521
vn 0.4425 0.0000 0.8968
vn 0.8919 0.0000 0.4523
vn 0.8399 0.4154 -0.3493
vn -0.9526 0.2971 -0.0659
vn 0.6193 0.0319 -0.7845
vn -0.8804 0.3396 -0.3310
vn 0.2113 0.0201 -0.9772
vn -0.6913 0.0228 -0.7222
vn -0.9898 0.1136 -0.0864
vn 0.9990 0.0443 0.0069
vn 0.8961 0.1220 -0.4267
vn 0.0000 0.9361 0.3516
vn -0.9200 0.2413 -0.3088
vn -0.9103 0.2907 -0.2947
vn 0.9414 0.1659 -0.2936
vn 0.8439 0.1575 -0.5128
vn -0.9276 0.3061 -0.2143
vn -0.9822 0.0877 0.1660
vn 0.9530 0.0189 0.3025
vn 0.9532 0.1883 -0.2365
vn -0.9363 0.3091 -0.1665
vn -0.7327 0.6662 -0.1391
vn 0.6838 0.7172 -0.1343
vn 0.5311 0.8327 -0.1566
vn -0.5179 0.8374 -0.1749
vn -0.4679 0.8756 -0.1197
vn 0.4621 0.8697 -0.1732
vn 0.6074 0.7757 -0.1712
vn -0.4516 0.8548 -0.2557
vn -0.6844 0.6585 -0.3130
vn 0.9522 0.2738 0.1352
usemtl Material
s off
f 95/1/1 3/2/1 4/3/1
f 3/2/2 2/4/2 4/3/2
f 138/5/3 8/6/3 140/7/3
f 137/8/4 8/6/4 5/9/4
f 135/10/5 7/11/5 5/12/5
f 139/13/6 6/14/6 138/5/6
f 125/15/7 9/16/7 127/17/7
f 132/18/8 10/19/8 12/20/8
f 129/21/9 12/20/9 9/22/9
f 130/23/10 11/24/10 10/19/10
f 85/25/11 13/26/11 87/27/11
f 124/28/12 14/29/12 16/30/12
f 121/31/13 16/30/13 13/32/13
f 122/33/14 15/34/14 14/29/14
f 125/35/14 20/36/14 128/37/14
f 126/38/15 19/39/15 127/40/15
f 126/38/16 20/36/16 18/41/16
f 123/42/17 19/43/17 121/44/17
f 133/45/18 24/46/18 136/47/18
f 134/48/19 23/49/19 135/50/19
f 136/47/20 22/51/20 134/48/20
f 129/52/21 21/53/21 23/54/21
f 92/55/22 25/56/22 28/57/22
f 91/58/23 26/59/23 27/60/23
f 92/55/24 26/59/24 90/61/24
f 139/62/25 27/63/25 137/64/25
f 75/65/26 31/66/26 29/67/26
f 86/68/27 30/69/27 32/70/27
f 86/68/28 29/71/28 87/72/28
f 88/73/29 31/74/29 30/69/29
f 37/75/30 35/76/30 33/77/30
f 76/78/31 36/79/31 74/80/31
f 74/80/28 33/81/28 75/82/28
f 73/83/32 34/84/32 76/78/32
f 41/85/33 39/86/33 37/75/33
f 34/84/34 40/87/34 36/79/34
f 36/79/28 37/88/28 33/81/28
f 34/84/35 39/89/35 38/90/35
f 47/91/36 41/85/36 45/92/36
f 38/90/37 44/93/37 40/87/37
f 40/87/28 41/94/28 37/88/28
f 38/90/38 43/95/38 42/96/38
f 119/97/39 47/91/39 45/92/39
f 44/93/40 46/98/40 48/99/40
f 44/93/28 45/100/28 41/94/28
f 43/95/29 46/98/29 42/96/29
f 67/101/41 49/102/41 65/103/41
f 116/104/42 50/105/42 52/106/42
f 113/107/43 52/106/43 49/108/43
f 115/109/44 50/105/44 114/110/44
f 106/111/45 53/112/45 56/113/45
f 108/114/46 55/115/46 105/116/46
f 108/114/47 56/113/47 54/117/47
f 101/118/48 55/119/48 103/120/48
f 112/121/49 58/122/49 110/123/49
f 110/123/50 59/124/50 111/125/50
f 109/126/51 60/127/51 112/121/51
f 105/128/52 57/129/52 59/130/52
f 99/131/53 61/132/53 97/133/53
f 101/134/54 62/135/54 104/136/54
f 102/137/55 61/138/55 103/139/55
f 102/137/56 62/135/56 64/140/56
f 69/141/57 67/101/57 65/103/57
f 52/106/58 66/142/58 68/143/58
f 52/106/59 65/144/59 49/108/59
f 51/145/60 66/142/60 50/105/60
f 77/146/61 71/147/61 69/141/61
f 66/142/62 72/148/62 68/143/62
f 68/143/63 69/149/63 65/144/63
f 66/142/64 71/150/64 70/151/64
f 30/69/65 73/83/65 76/78/65
f 29/71/28 74/80/28 75/82/28
f 30/69/66 74/80/66 32/70/66
f 33/77/67 73/152/67 75/65/67
f 81/153/68 79/154/68 77/146/68
f 70/151/69 80/155/69 72/148/69
f 72/148/70 77/156/70 69/149/70
f 70/151/71 79/157/71 78/158/71
f 80/155/72 82/159/72 84/160/72
f 80/155/73 81/161/73 77/156/73
f 79/157/74 82/159/74 78/158/74
f 14/29/29 85/162/29 88/73/29
f 16/30/75 87/72/75 13/32/75
f 16/30/76 88/73/76 86/68/76
f 31/66/77 87/27/77 29/67/77
f 96/163/78 90/61/78 94/164/78
f 94/164/23 91/58/23 95/165/23
f 96/163/79 89/166/79 92/55/79
f 27/63/80 89/167/80 91/168/80
f 1/169/79 93/170/79 96/163/79
f 2/4/23 95/165/23 4/171/23
f 1/169/81 94/164/81 2/4/81
f 91/168/82 93/172/82 95/1/82
f 115/173/83 97/133/83 113/174/83
f 63/175/44 98/176/44 62/135/44
f 61/138/84 100/177/84 97/178/84
f 64/140/85 98/176/85 100/177/85
f 54/117/86 104/136/86 102/137/86
f 54/117/87 103/139/87 55/115/87
f 56/113/54 101/134/54 104/136/54
f 63/179/88 103/120/88 61/132/88
f 53/180/89 105/128/89 55/119/89
f 60/127/90 108/114/90 58/122/90
f 58/122/91 105/116/91 59/124/91
f 57/181/45 106/111/45 60/127/45
f 120/182/51 109/126/51 112/121/51
f 118/183/92 111/125/92 119/184/92
f 120/182/93 110/123/93 118/183/93
f 59/130/94 109/185/94 111/186/94
f 51/187/95 113/174/95 49/102/95
f 99/188/44 114/110/44 98/176/44
f 97/178/96 116/104/96 113/107/96
f 100/177/97 114/110/97 116/104/97
f 46/98/98 118/183/98 48/99/98
f 48/99/99 119/184/99 45/100/99
f 47/189/51 120/182/51 46/98/51
f 111/186/100 117/190/100 119/97/100
f 15/191/101 121/44/101 13/26/101
f 17/192/14 122/33/14 20/36/14
f 19/39/102 124/28/102 121/31/102
f 18/41/103 122/33/103 124/28/103
f 12/20/104 128/37/104 126/38/104
f 12/20/105 127/40/105 9/22/105
f 11/24/14 128/37/14 10/19/14
f 17/193/106 127/17/106 19/43/106
f 9/16/107 131/194/107 129/52/107
f 21/195/10 130/23/10 24/46/10
f 23/49/108 132/18/108 129/21/108
f 24/46/109 132/18/109 22/51/109
f 6/14/110 134/48/110 8/6/110
f 8/6/111 135/50/111 5/9/111
f 7/196/18 136/47/18 6/14/18
f 23/54/112 133/197/112 135/10/112
f 5/12/113 139/62/113 137/64/113
f 25/56/114 138/5/114 28/57/114
f 27/60/115 140/7/115 137/8/115
f 28/57/116 140/7/116 26/59/116
f 95/1/117 93/172/117 3/2/117
f 3/2/2 1/169/2 2/4/2
f 138/5/118 6/14/118 8/6/118
f 137/8/4 140/7/4 8/6/4
f 135/10/119 133/197/119 7/11/119
f 139/13/6 7/196/6 6/14/6
f 125/15/120 11/198/120 9/16/120
f 132/18/121 130/23/121 10/19/121
f 129/21/9 132/18/9 12/20/9
f 130/23/10 131/199/10 11/24/10
f 85/25/122 15/191/122 13/26/122
f 124/28/123 122/33/123 14/29/123
f 121/31/13 124/28/13 16/30/13
f 122/33/14 123/200/14 15/34/14
f 125/35/14 17/192/14 20/36/14
f 126/38/15 18/41/15 19/39/15
f 126/38/124 128/37/124 20/36/124
f 123/42/125 17/193/125 19/43/125
f 133/45/18 21/195/18 24/46/18
f 134/48/19 22/51/19 23/49/19
f 136/47/126 24/46/126 22/51/126
f 129/52/127 131/194/127 21/53/127
f 92/55/79 89/166/79 25/56/79
f 91/58/23 90/61/23 26/59/23
f 92/55/128 28/57/128 26/59/128
f 139/62/129 25/201/129 27/63/129
f 75/65/130 73/152/130 31/66/130
f 86/68/131 88/73/131 30/69/131
f 86/68/28 32/70/28 29/71/28
f 88/73/29 85/162/29 31/74/29
f 37/75/132 39/86/132 35/76/132
f 76/78/133 34/84/133 36/79/133
f 74/80/28 36/79/28 33/81/28
f 73/83/32 35/202/32 34/84/32
f 41/85/134 43/203/134 39/86/134
f 34/84/135 38/90/135 40/87/135
f 36/79/28 40/87/28 37/88/28
f 34/84/35 35/202/35 39/89/35
f 47/91/136 43/203/136 41/85/136
f 38/90/137 42/96/137 44/93/137
f 40/87/28 44/93/28 41/94/28
f 38/90/38 39/89/38 43/95/38
f 119/97/138 117/190/138 47/91/138
f 44/93/139 42/96/139 46/98/139
f 44/93/28 48/99/28 45/100/28
f 43/95/29 47/189/29 46/98/29
f 67/101/140 51/187/140 49/102/140
f 116/104/141 114/110/141 50/105/141
f 113/107/43 116/104/43 52/106/43
f 115/109/44 51/145/44 50/105/44
f 106/111/45 107/204/45 53/112/45
f 108/114/46 54/117/46 55/115/46
f 108/114/142 106/111/142 56/113/142
f 101/118/143 53/180/143 55/119/143
f 112/121/144 60/127/144 58/122/144
f 110/123/50 58/122/50 59/124/50
f 109/126/51 57/181/51 60/127/51
f 105/128/145 107/205/145 57/129/145
f 99/131/146 63/179/146 61/132/146
f 101/134/54 63/175/54 62/135/54
f 102/137/55 64/140/55 61/138/55
f 102/137/147 104/136/147 62/135/147
f 69/141/148 71/147/148 67/101/148
f 52/106/149 50/105/149 66/142/149
f 52/106/150 68/143/150 65/144/150
f 51/145/60 67/206/60 66/142/60
f 77/146/151 79/154/151 71/147/151
f 66/142/152 70/151/152 72/148/152
f 68/143/63 72/148/63 69/149/63
f 66/142/64 67/206/64 71/150/64
f 30/69/65 31/74/65 73/83/65
f 29/71/28 32/70/28 74/80/28
f 30/69/153 76/78/153 74/80/153
f 33/77/154 35/76/154 73/152/154
f 81/153/155 83/207/155 79/154/155
f 70/151/156 78/158/156 80/155/156
f 72/148/70 80/155/70 77/156/70
f 70/151/71 71/150/71 79/157/71
f 80/155/157 78/158/157 82/159/157
f 80/155/73 84/160/73 81/161/73
f 79/157/74 83/208/74 82/159/74
f 14/29/29 15/34/29 85/162/29
f 16/30/75 86/68/75 87/72/75
f 16/30/158 14/29/158 88/73/158
f 31/66/159 85/25/159 87/27/159
f 96/163/160 92/55/160 90/61/160
f 94/164/23 90/61/23 91/58/23
f 96/163/79 93/170/79 89/166/79
f 27/63/161 25/201/161 89/167/161
f 1/169/79 3/209/79 93/170/79
f 2/4/23 94/164/23 95/165/23
f 1/169/162 96/163/162 94/164/162
f 91/168/163 89/167/163 93/172/163
f 115/173/164 99/131/164 97/133/164
f 63/175/44 99/188/44 98/176/44
f 61/138/84 64/140/84 100/177/84
f 64/140/165 62/135/165 98/176/165
f 54/117/166 56/113/166 104/136/166
f 54/117/87 102/137/87 103/139/87
f 56/113/167 53/112/167 101/134/167
f 63/179/168 101/118/168 103/120/168
f 53/180/169 107/205/169 105/128/169
f 60/127/170 106/111/170 108/114/170
f 58/122/91 108/114/91 105/116/91
f 57/181/45 107/204/45 106/111/45
f 120/182/51 117/210/51 109/126/51
f 118/183/92 110/123/92 111/125/92
f 120/182/171 112/121/171 110/123/171
f 59/130/172 57/129/172 109/185/172
f 51/187/173 115/173/173 113/174/173
f 99/188/44 115/109/44 114/110/44
f 97/178/96 100/177/96 116/104/96
f 100/177/174 98/176/174 114/110/174
f 46/98/175 120/182/175 118/183/175
f 48/99/99 118/183/99 119/184/99
f 47/189/51 117/210/51 120/182/51
f 111/186/176 109/185/176 117/190/176
f 15/191/177 123/42/177 121/44/177
f 17/192/14 123/200/14 122/33/14
f 19/39/102 18/41/102 124/28/102
f 18/41/178 20/36/178 122/33/178
f 12/20/179 10/19/179 128/37/179
f 12/20/105 126/38/105 127/40/105
f 11/24/14 125/35/14 128/37/14
f 17/193/180 125/15/180 127/17/180
f 9/16/181 11/198/181 131/194/181
f 21/195/10 131/199/10 130/23/10
f 23/49/108 22/51/108 132/18/108
f 24/46/182 130/23/182 132/18/182
f 6/14/183 136/47/183 134/48/183
f 8/6/111 134/48/111 135/50/111
f 7/196/18 133/45/18 136/47/18
f 23/54/184 21/53/184 133/197/184
f 5/12/185 7/11/185 139/62/185
f 25/56/6 139/13/6 138/5/6
f 27/60/115 26/59/115 140/7/115
f 28/57/186 138/5/186 140/7/186
